# xmcd CD database file
#
# Track frame offsets:
#	150
#	11828
#	30052
#	54164
#	74344
#	84751
#	116960
#	123730
#	130795
#	142299
#	151275
#	168013
#	177484
#	204296
#	213956
#	248043
#	274181
#	303237
#
# Disc length: 4388 seconds
#
# Revision: 0
# Processed by: cddbd v1.5.2PL0 Copyright (c) Steve Scherf et al.
# Submitted via: CDex 1.50
#
DISCID=f3112212
DTITLE=Leila Pinheiro - Bossa Nova On Cinema Gold
DYEAR=2006
DGENRE=Jazz
TTITLE0=Chega De Saudade (No More Blues) - Leila Pinheiro
TTITLE1=Copacabana 0 Nana Caymmi
TTITLE2=O Amor Em Paz(Once I Loved) - Duke Pearson and Airto Moreira and Stella Mars
TTITLE3=Aguas De Marc(Waters Of March) - Cassandra Wilson
TTITLE4=Girl From Ipanema - Laurindo Almeida
TTITLE5=Insensatez(How Insensitive) - Bireli Lagrene
TTITLE6=Wave - Stanley Turrentine
TTITLE7=Recado Bossa Nova - Hank Mobley
TTITLE8=Fly Me To The Moon - Julie London
TTITLE9=One Note Samba - Nancy Wilson
TTITLE10=Liebestraum - Ike Quebec
TTITLE11=Triste - Earl Klugh
TTITLE12=Corcovado - Grant Green
TTITLE13=Besame Mucho - Julie London
TTITLE14=Love For Sale - Dexter Gordon
TTITLE15=Useless Landscape - Javon Jackson
TTITLE16=Desafinado - Eliane Elias
TTITLE17=Goin Home - Ike Quebec
EXTD=YEAR: 2006
EXTT0=
EXTT1=
EXTT2=
EXTT3=
EXTT4=
EXTT5=
EXTT6=
EXTT7=
EXTT8=
EXTT9=
EXTT10=
EXTT11=
EXTT12=
EXTT13=
EXTT14=
EXTT15=
EXTT16=
EXTT17=
PLAYORDER=
